<svg width="88" height="60" viewBox="0 0 88 60" fill="none" xmlns="http://www.w3.org/2000/svg">
<g filter="url(#filter0_d_129_423)">
<mask id="path-1-outside-1_129_423" maskUnits="userSpaceOnUse" x="-2.38549" y="-4.51851" width="93.6153" height="67.9956" fill="black">
<rect fill="white" x="-2.38549" y="-4.51851" width="93.6153" height="67.9956"/>
<path fill-rule="evenodd" clip-rule="evenodd" d="M33.7935 42.1321C36.1503 45.2825 39.5052 47.7287 43.567 48.934C49.9934 50.841 56.6307 49.1793 61.354 45.1014C62.7045 46.54 64.4427 47.6505 66.4708 48.2523C72.5712 50.0625 78.9841 46.5846 80.7943 40.4842C82.6046 34.3837 79.1267 27.9709 73.0262 26.1606C71.0911 25.5864 69.1246 25.5443 67.2835 25.9492C65.6507 19.7658 60.9264 14.5579 54.3471 12.6055C48.1868 10.7775 41.8328 12.2287 37.1566 15.944C36.1831 15.3759 35.1265 14.9143 33.9977 14.5794C27.7706 12.7315 21.282 15.3114 17.9073 20.4881C17.8813 20.4802 17.8553 20.4723 17.8292 20.4646C12.9488 19.0164 7.81852 21.7987 6.37033 26.679C4.92214 31.5594 7.70446 36.6897 12.5848 38.1379C14.8124 38.7989 17.092 38.5785 19.0498 37.6796C20.7837 39.6981 23.0991 41.2579 25.8398 42.0712C28.5331 42.8704 31.2754 42.8413 33.7935 42.1321Z"/>
</mask>
<path fill-rule="evenodd" clip-rule="evenodd" d="M33.7935 42.1321C36.1503 45.2825 39.5052 47.7287 43.567 48.934C49.9934 50.841 56.6307 49.1793 61.354 45.1014C62.7045 46.54 64.4427 47.6505 66.4708 48.2523C72.5712 50.0625 78.9841 46.5846 80.7943 40.4842C82.6046 34.3837 79.1267 27.9709 73.0262 26.1606C71.0911 25.5864 69.1246 25.5443 67.2835 25.9492C65.6507 19.7658 60.9264 14.5579 54.3471 12.6055C48.1868 10.7775 41.8328 12.2287 37.1566 15.944C36.1831 15.3759 35.1265 14.9143 33.9977 14.5794C27.7706 12.7315 21.282 15.3114 17.9073 20.4881C17.8813 20.4802 17.8553 20.4723 17.8292 20.4646C12.9488 19.0164 7.81852 21.7987 6.37033 26.679C4.92214 31.5594 7.70446 36.6897 12.5848 38.1379C14.8124 38.7989 17.092 38.5785 19.0498 37.6796C20.7837 39.6981 23.0991 41.2579 25.8398 42.0712C28.5331 42.8704 31.2754 42.8413 33.7935 42.1321Z" fill="#D6D6D6"/>
<path d="M33.7935 42.1321L32.709 38.2819L35.3517 37.5375L36.9964 39.736L33.7935 42.1321ZM61.354 45.1014L58.74 42.0737L61.6443 39.5662L64.2704 42.3637L61.354 45.1014ZM67.2835 25.9492L68.1426 29.8558L64.3956 30.6799L63.416 26.9704L67.2835 25.9492ZM37.1566 15.944L39.6449 19.0758L37.5032 20.7774L35.1407 19.3988L37.1566 15.944ZM17.9073 20.4881L21.2582 22.6725L19.6143 25.1942L16.7361 24.3128L17.9073 20.4881ZM19.0498 37.6796L17.3807 34.0445L20.12 32.7868L22.084 35.0732L19.0498 37.6796ZM42.4291 52.7687C37.5142 51.3103 33.4453 48.3442 30.5905 44.5282L36.9964 39.736C38.8553 42.2208 41.4961 44.1471 44.7049 45.0993L42.4291 52.7687ZM63.968 48.1291C58.2568 53.0599 50.2163 55.0795 42.4291 52.7687L44.7049 45.0993C49.7706 46.6024 55.0046 45.2987 58.74 42.0737L63.968 48.1291ZM64.2704 42.3637C65.1489 43.2995 66.2784 44.0228 67.6087 44.4175L65.3329 52.087C62.607 51.2781 60.2601 49.7804 58.4377 47.839L64.2704 42.3637ZM67.6087 44.4175C71.5913 45.5993 75.7778 43.3288 76.9596 39.3463L84.6291 41.6221C82.1904 49.8404 73.5512 54.5257 65.3329 52.087L67.6087 44.4175ZM76.9596 39.3463C78.1414 35.3637 75.8709 31.1772 71.8883 29.9954L74.1642 22.3259C82.3825 24.7646 87.0677 33.4038 84.6291 41.6221L76.9596 39.3463ZM71.8883 29.9954C70.6184 29.6185 69.3395 29.5926 68.1426 29.8558L66.4244 22.0425C68.9096 21.496 71.5638 21.5543 74.1642 22.3259L71.8883 29.9954ZM55.485 8.77079C63.4578 11.1366 69.1766 17.451 71.1509 24.928L63.416 26.9704C62.1249 22.0806 58.395 17.9791 53.2092 16.4402L55.485 8.77079ZM34.6683 12.8121C40.3224 8.31989 48.021 6.55593 55.485 8.77079L53.2092 16.4402C48.3526 14.9991 43.3432 16.1375 39.6449 19.0758L34.6683 12.8121ZM35.1356 10.7446C36.5736 11.1713 37.9247 11.761 39.1726 12.4891L35.1407 19.3988C34.4414 18.9908 33.6794 18.6573 32.8598 18.4141L35.1356 10.7446ZM14.5564 18.3037C18.871 11.6853 27.1657 8.37964 35.1356 10.7446L32.8598 18.4141C28.3756 17.0834 23.693 18.9375 21.2582 22.6725L14.5564 18.3037ZM18.9671 16.6298C19.0045 16.6409 19.0416 16.6521 19.0785 16.6635L16.7361 24.3128C16.721 24.3082 16.7061 24.3037 16.6913 24.2993L18.9671 16.6298ZM2.5356 25.5411C4.61224 18.5429 11.9689 14.5532 18.9671 16.6298L16.6913 24.2993C13.9288 23.4796 11.0248 25.0545 10.2051 27.817L2.5356 25.5411ZM11.4469 41.9726C4.44868 39.896 0.458959 32.5393 2.5356 25.5411L10.2051 27.817C9.38532 30.5794 10.9602 33.4834 13.7227 34.3032L11.4469 41.9726ZM20.7189 41.3147C17.9142 42.6025 14.6384 42.9197 11.4469 41.9726L13.7227 34.3032C14.9863 34.6781 16.2698 34.5546 17.3807 34.0445L20.7189 41.3147ZM24.7019 45.9059C21.2023 44.8674 18.2354 42.8701 16.0156 40.286L22.084 35.0732C23.3321 36.5261 24.9959 37.6483 26.9777 38.2364L24.7019 45.9059ZM34.8779 45.9822C31.6539 46.8903 28.1407 46.9263 24.7019 45.9059L26.9777 38.2364C28.9255 38.8144 30.8969 38.7923 32.709 38.2819L34.8779 45.9822Z" fill="#D6D6D6" mask="url(#path-1-outside-1_129_423)"/>
<mask id="path-3-inside-2_129_423" fill="white">
<path fill-rule="evenodd" clip-rule="evenodd" d="M33.7935 42.1321C36.1503 45.2825 39.5052 47.7287 43.567 48.934C49.9934 50.841 56.6307 49.1793 61.354 45.1014C62.7045 46.54 64.4427 47.6505 66.4708 48.2523C72.5712 50.0625 78.9841 46.5846 80.7943 40.4842C82.6046 34.3837 79.1267 27.9709 73.0262 26.1606C71.0911 25.5864 69.1246 25.5443 67.2835 25.9492C65.6507 19.7658 60.9264 14.5579 54.3471 12.6055C48.1868 10.7775 41.8328 12.2287 37.1566 15.944C36.1831 15.3759 35.1265 14.9143 33.9977 14.5794C27.7706 12.7315 21.282 15.3114 17.9073 20.4881C17.8813 20.4802 17.8553 20.4723 17.8292 20.4646C12.9488 19.0164 7.81852 21.7987 6.37033 26.679C4.92214 31.5594 7.70446 36.6897 12.5848 38.1379C14.8124 38.7989 17.092 38.5785 19.0498 37.6796C20.7837 39.6981 23.0991 41.2579 25.8398 42.0712C28.5331 42.8704 31.2754 42.8413 33.7935 42.1321Z"/>
</mask>
<path fill-rule="evenodd" clip-rule="evenodd" d="M33.7935 42.1321C36.1503 45.2825 39.5052 47.7287 43.567 48.934C49.9934 50.841 56.6307 49.1793 61.354 45.1014C62.7045 46.54 64.4427 47.6505 66.4708 48.2523C72.5712 50.0625 78.9841 46.5846 80.7943 40.4842C82.6046 34.3837 79.1267 27.9709 73.0262 26.1606C71.0911 25.5864 69.1246 25.5443 67.2835 25.9492C65.6507 19.7658 60.9264 14.5579 54.3471 12.6055C48.1868 10.7775 41.8328 12.2287 37.1566 15.944C36.1831 15.3759 35.1265 14.9143 33.9977 14.5794C27.7706 12.7315 21.282 15.3114 17.9073 20.4881C17.8813 20.4802 17.8553 20.4723 17.8292 20.4646C12.9488 19.0164 7.81852 21.7987 6.37033 26.679C4.92214 31.5594 7.70446 36.6897 12.5848 38.1379C14.8124 38.7989 17.092 38.5785 19.0498 37.6796C20.7837 39.6981 23.0991 41.2579 25.8398 42.0712C28.5331 42.8704 31.2754 42.8413 33.7935 42.1321Z" fill="white"/>
<path d="M33.7935 42.1321L32.709 38.2819L35.3517 37.5375L36.9964 39.736L33.7935 42.1321ZM61.354 45.1014L58.74 42.0737L61.6443 39.5662L64.2704 42.3637L61.354 45.1014ZM67.2835 25.9492L68.1426 29.8558L64.3956 30.6799L63.416 26.9704L67.2835 25.9492ZM37.1566 15.944L39.6449 19.0758L37.5032 20.7774L35.1407 19.3988L37.1566 15.944ZM17.9073 20.4881L21.2582 22.6725L19.6143 25.1942L16.7361 24.3128L17.9073 20.4881ZM19.0498 37.6796L17.3807 34.0445L20.12 32.7868L22.084 35.0732L19.0498 37.6796ZM42.4291 52.7687C37.5142 51.3103 33.4453 48.3442 30.5905 44.5282L36.9964 39.736C38.8553 42.2208 41.4961 44.1471 44.7049 45.0993L42.4291 52.7687ZM63.968 48.1291C58.2568 53.0599 50.2163 55.0795 42.4291 52.7687L44.7049 45.0993C49.7706 46.6024 55.0046 45.2987 58.74 42.0737L63.968 48.1291ZM64.2704 42.3637C65.1489 43.2995 66.2784 44.0228 67.6087 44.4175L65.3329 52.087C62.607 51.2781 60.2601 49.7804 58.4377 47.839L64.2704 42.3637ZM67.6087 44.4175C71.5913 45.5993 75.7778 43.3288 76.9596 39.3463L84.6291 41.6221C82.1904 49.8404 73.5512 54.5257 65.3329 52.087L67.6087 44.4175ZM76.9596 39.3463C78.1414 35.3637 75.8709 31.1772 71.8883 29.9954L74.1642 22.3259C82.3825 24.7646 87.0677 33.4038 84.6291 41.6221L76.9596 39.3463ZM71.8883 29.9954C70.6184 29.6185 69.3395 29.5926 68.1426 29.8558L66.4244 22.0425C68.9096 21.496 71.5638 21.5543 74.1642 22.3259L71.8883 29.9954ZM55.485 8.77079C63.4578 11.1366 69.1766 17.451 71.1509 24.928L63.416 26.9704C62.1249 22.0806 58.395 17.9791 53.2092 16.4402L55.485 8.77079ZM34.6683 12.8121C40.3224 8.31989 48.021 6.55593 55.485 8.77079L53.2092 16.4402C48.3526 14.9991 43.3432 16.1375 39.6449 19.0758L34.6683 12.8121ZM35.1356 10.7446C36.5736 11.1713 37.9247 11.761 39.1726 12.4891L35.1407 19.3988C34.4414 18.9908 33.6794 18.6573 32.8598 18.4141L35.1356 10.7446ZM14.5564 18.3037C18.871 11.6853 27.1657 8.37964 35.1356 10.7446L32.8598 18.4141C28.3756 17.0834 23.693 18.9375 21.2582 22.6725L14.5564 18.3037ZM18.9671 16.6298C19.0045 16.6409 19.0416 16.6521 19.0785 16.6635L16.7361 24.3128C16.721 24.3082 16.7061 24.3037 16.6913 24.2993L18.9671 16.6298ZM2.5356 25.5411C4.61224 18.5429 11.9689 14.5532 18.9671 16.6298L16.6913 24.2993C13.9288 23.4796 11.0248 25.0545 10.2051 27.817L2.5356 25.5411ZM11.4469 41.9726C4.44868 39.896 0.458959 32.5393 2.5356 25.5411L10.2051 27.817C9.38532 30.5794 10.9602 33.4834 13.7227 34.3032L11.4469 41.9726ZM20.7189 41.3147C17.9142 42.6025 14.6384 42.9197 11.4469 41.9726L13.7227 34.3032C14.9863 34.6781 16.2698 34.5546 17.3807 34.0445L20.7189 41.3147ZM24.7019 45.9059C21.2023 44.8674 18.2354 42.8701 16.0156 40.286L22.084 35.0732C23.3321 36.5261 24.9959 37.6483 26.9777 38.2364L24.7019 45.9059ZM34.8779 45.9822C31.6539 46.8903 28.1407 46.9263 24.7019 45.9059L26.9777 38.2364C28.9255 38.8144 30.8969 38.7923 32.709 38.2819L34.8779 45.9822Z" fill="black" mask="url(#path-3-inside-2_129_423)"/>
</g>
<defs>
<filter id="filter0_d_129_423" x="0.986023" y="7.8172" width="85.2885" height="50.9052" filterUnits="userSpaceOnUse" color-interpolation-filters="sRGB">
<feFlood flood-opacity="0" result="BackgroundImageFix"/>
<feColorMatrix in="SourceAlpha" type="matrix" values="0 0 0 0 0 0 0 0 0 0 0 0 0 0 0 0 0 0 127 0" result="hardAlpha"/>
<feOffset dy="4"/>
<feGaussianBlur stdDeviation="0.5"/>
<feComposite in2="hardAlpha" operator="out"/>
<feColorMatrix type="matrix" values="0 0 0 0 0 0 0 0 0 0 0 0 0 0 0 0 0 0 0.25 0"/>
<feBlend mode="normal" in2="BackgroundImageFix" result="effect1_dropShadow_129_423"/>
<feBlend mode="normal" in="SourceGraphic" in2="effect1_dropShadow_129_423" result="shape"/>
</filter>
</defs>
</svg>
