<svg width="0" height="0" class="hidden">
  <symbol version="1.1" id="glass-lemon" xml:space="preserve" xmlns="http://www.w3.org/2000/svg" xmlnsSvg="http://www.w3.org/2000/svg" viewBox="0 0 138.51524 251.15349">
    <defs
     id="defs1" /><g
     id="layer2"
     style="display:inline"
     transform="matrix(1.0606253,0,0,1.0606253,-68.589224,-6.7769077)"><path
       style="display:inline;fill:#2a5a59;fill-opacity:1;stroke-width:26.4567;stroke-linecap:round;stroke-linejoin:round"
       d="M 166.1587,214.17982 179.02775,77.973019 c 3.20783,-2.494982 -6.25829,-22.581998 -14.71962,-22.830009 4.74695,-2.740652 25.01073,-11.047339 27.59031,-13.514765 2.57958,-2.467426 4.20584,-9.533236 2.91605,-14.748478 -1.28979,-5.215241 -2.91605,-11.27165 -2.91605,-11.27165 0,0 -3.64506,-7.458355 -9.98186,-4.542307 -6.3368,2.916049 -33.75887,16.206502 -33.75887,16.206502 0,0 -4.71054,3.364672 -7.23404,8.523835 -2.52351,5.159164 -4.03761,7.682667 -4.93486,10.48656 -1.90664,-0.112155 -16.24599,-1.548934 -28.92561,0.463265 -30.423987,7.060576 -36.208661,12.600329 -42.394534,22.751505 0.951673,30.136313 11.410736,130.885253 13.072178,147.380913 3.806692,11.7373 9.495835,25.03983 41.852716,26.30872 26.96406,-0.63445 45.86387,-8.52759 46.56514,-29.00729 z"
       id="path40" /><path
       style="display:inline;fill:#fadf85;fill-opacity:1;stroke-width:26.4567;stroke-linecap:round;stroke-linejoin:round"
       d="M 166.1587,210.17982 179.02775,73.973019 c 3.20783,-2.494982 -6.25829,-22.581998 -14.71962,-22.830009 4.74695,-2.740652 25.01073,-11.047339 27.59031,-13.514765 2.57958,-2.467426 4.20584,-9.533236 2.91605,-14.748478 -1.28979,-5.215241 -2.91605,-11.27165 -2.91605,-11.27165 0,0 -3.64506,-7.4583553 -9.98186,-4.5423065 -6.3368,2.9160488 -33.75887,16.2065015 -33.75887,16.2065015 0,0 -4.71054,3.364672 -7.23404,8.523835 -2.52351,5.159164 -4.03761,7.682667 -4.93486,10.48656 -1.90664,-0.112155 -16.24599,-1.548934 -28.92561,0.463265 -30.423987,7.060576 -36.208661,12.600329 -42.394534,22.751505 0.951673,30.136308 11.410736,130.885253 13.072178,147.380913 3.806692,11.7373 9.495835,25.03983 41.852716,26.30872 26.96406,-0.63445 45.86387,-8.52759 46.56514,-29.00729 z"
       id="path1" /><path
       style="display:inline;fill:#9ec09d;fill-opacity:1;stroke:none;stroke-width:6;stroke-linecap:round;stroke-linejoin:round;stroke-dasharray:none;stroke-opacity:1"
       d="m 89.615861,216.98141 -1.110285,-11.10285 c 0,0 15.068154,13.95787 31.881044,13.0062 12.68897,-0.63445 26.64684,-5.07559 31.56381,-9.99257 0,3.48947 -0.47583,9.19951 -0.47583,9.19951 0,0 -7.772,10.94424 -31.88104,9.67534 -24.109049,-1.2689 -29.977699,-10.78563 -29.977699,-10.78563 z"
       id="path23" /><path
       style="display:inline;fill:#9ec09d;fill-opacity:1;stroke:none;stroke-width:6;stroke-linecap:round;stroke-linejoin:round;stroke-dasharray:none;stroke-opacity:1"
       d="M 143.78364,102.51033 146.924,89.500267 c 0,0 9.64539,-0.897246 16.15042,-4.486229 -0.44862,6.505032 -2.0188,25.571502 -2.0188,25.571502 0,0 -8.97246,-7.62659 -17.27198,-8.07521 z"
       id="path24" /><path
       style="display:inline;fill:#9ec09d;fill-opacity:1;stroke:none;stroke-width:6;stroke-linecap:round;stroke-linejoin:round;stroke-dasharray:none;stroke-opacity:1"
       d="m 131.67082,99.594282 1.34587,-8.748147 c 0,0 -41.49762,1.57018 -52.713193,-5.607786 0,9.421081 1.57018,26.693061 1.57018,26.693061 0,0 26.468753,-10.76695 49.797143,-12.337128 z"
       id="path25" /><path
       style="display:inline;fill:#f7cb1a;fill-opacity:1;stroke:none;stroke-width:6;stroke-linecap:round;stroke-linejoin:round;stroke-dasharray:none;stroke-opacity:1"
       d="m 91.51907,200.53443 -7.62659,-88.37871 c 0,0 24.67426,-12.561438 47.77834,-9.64539 0.22431,4.71054 -1.12156,13.01006 -1.12156,13.01006 l 4.03761,0.89725 4.48623,-25.795816 h 3.81329 l 0.89725,-8.299524 -3.36468,-0.672934 7.40228,-35.441208 c 0,0 0.89725,-7.177967 10.99126,-12.112818 10.09402,-4.934852 26.69307,-12.785753 26.69307,-12.785753 l 2.69173,7.402278 -31.4036,15.47749 c 0,0 -2.24311,0 -3.81329,5.832097 -1.57018,5.832098 -8.74815,51.367318 -8.74815,51.367318 l -2.46743,7.62659 14.58025,3.58899 2.91605,1.79449 -1.7945,30.50635 -6.28072,57.19942 c 0,0 -19.06647,11.6642 -31.17929,10.99126 -12.11281,-0.67293 -24.674256,-4.0376 -28.48755,-12.56144 z"
       id="path26" /><path
       style="display:inline;fill:#fbe07f;fill-opacity:1;stroke:none;stroke-width:3;stroke-linecap:round;stroke-linejoin:round;stroke-dasharray:none;stroke-opacity:1"
       d="m 107.89381,147.14831 c 0,0 -4.48623,13.12222 -2.57959,18.84216 -2.35527,0.22431 -4.71054,-3.47683 -4.0376,-6.50503 0.67293,-3.02821 2.91605,-10.43048 6.61719,-12.33713 z"
       id="path36" /><path
       style="display:inline;fill:#fbe07f;fill-opacity:1;stroke:none;stroke-width:3;stroke-linecap:round;stroke-linejoin:round;stroke-dasharray:none;stroke-opacity:1"
       d="m 124.71716,171.4861 c 0,0 -3.81329,15.14102 2.57959,20.07587 3.0282,0.67294 -4.93486,-17.94491 -2.57959,-20.07587 z"
       id="path37" /><path
       style="display:inline;fill:#9ec09d;fill-opacity:1;stroke:none;stroke-width:3;stroke-linecap:round;stroke-linejoin:round;stroke-dasharray:none;stroke-opacity:1"
       d="m 77.836071,73.574154 c 0,0 -2.467425,-3.364672 4.934852,-7.177966 7.402278,-3.813295 41.497617,-13.234376 55.853547,-6.280721 -2.0188,12.561441 -3.58898,24.001325 -3.58898,24.001325 0,0 -29.60911,3.364672 -57.199419,-10.542638 z"
       id="path38" /><path
       style="display:inline;fill:#9ec09d;fill-opacity:1;stroke:none;stroke-width:3;stroke-linecap:round;stroke-linejoin:round;stroke-dasharray:none;stroke-opacity:1"
       d="m 147.14831,80.75212 4.0376,-17.496293 c 0,0 11.88851,5.832098 15.25318,9.869704 -1.12156,2.691737 -2.69174,4.71054 -3.58898,4.71054 -0.89725,0 -15.7018,2.916049 -15.7018,2.916049 z"
       id="path39" /><path
       id="path2"
       style="display:inline;stroke-linecap:round;stroke-linejoin:round"
       d="m 182.60938,14.982422 c -1.10519,0.09854 -2.35606,0.411833 -3.82813,0.935547 -5.6364,2.005243 -21.22777,8.872681 -29.9082,14.878906 -3.71102,2.567746 -5.49539,6.396589 -6.9961,10.099609 -1.27467,3.145249 -2.17978,6.844831 -2.83398,10.154297 -9.6999,-1.760248 -20.13213,-2.603149 -36.71094,0.689453 a 3.0003,3.0003 0 0 0 -0.0937,0.02148 c -12.589945,2.921782 -19.634217,5.437194 -24.242186,8.304687 -4.60797,2.867493 -6.538162,6.27806 -8.175782,9.373047 A 3.0003,3.0003 0 0 0 69.472656,70.9375 c 0.793419,25.124908 9.560887,125.66066 10.941406,139.36719 a 3.0003,3.0003 0 0 0 0.13086,0.625 c 3.615075,11.14648 16.426154,20.28179 38.283198,21.58984 a 3.0003,3.0003 0 0 0 0.25,0.004 c 11.2926,-0.26571 21.14984,-1.89415 28.75391,-5.52735 7.60407,-3.63319 13.01027,-9.6426 14.17383,-17.76562 a 3.0003,3.0003 0 0 0 0.0195,-0.17578 L 173.24805,74.279297 a 3,3 0 0 0 0.23242,-3.617188 3,3 0 0 0 -0.0781,-0.06836 c -0.30283,-2.201335 -1.6827,-3.695151 -3.14648,-5.158203 -1.65675,-1.655926 -3.7333,-3.23026 -5.9375,-4.738281 -3.69924,-2.530869 -7.24587,-4.478458 -9.91992,-5.986328 0.1705,-0.863813 0.31723,-1.608815 0.56445,-2.615235 0.40276,-1.63959 1.02081,-3.218994 1.70117,-4.476562 3.65218,-1.756694 9.99658,-4.733473 16.05664,-7.601563 3.21615,-1.52213 6.25841,-2.971389 8.59571,-4.109375 1.16864,-0.568993 2.15907,-1.05915 2.92382,-1.451172 0.76476,-0.392021 1.06268,-0.477615 1.80079,-1.023437 0.63358,-0.46853 1.696,-0.762143 3.0996,-1.953125 0.70181,-0.595491 1.46854,-1.600344 1.74415,-2.798828 0.27561,-1.198485 0.10822,-2.384799 -0.25977,-3.535157 -1.07353,-3.35589 -2.41211,-7.203125 -2.41211,-7.203125 l 0.10938,0.396485 c 0,0 -0.22785,-0.880239 -0.67188,-1.482422 -0.44402,-0.602183 -1.19149,-1.200087 -2.08398,-1.529297 -0.8925,-0.32921 -1.85184,-0.444248 -2.95703,-0.345703 z m 0.32812,6.099609 c 0.32953,0.955015 1.10638,3.184558 1.97266,5.892578 0.0529,0.165366 0.0291,0.04296 0.043,0.119141 -0.28988,0.157294 -1.16301,0.542822 -2.47851,1.515625 0.39822,-0.294481 -0.27178,0.151489 -0.9707,0.509766 -0.69893,0.358276 -1.66613,0.835431 -2.81446,1.394531 -2.29665,1.118199 -5.32719,2.561821 -8.53515,4.080078 -6.41593,3.036514 -13.53215,6.369958 -17.0918,8.09375 a 3.0003,3.0003 0 0 0 -1.22656,1.091797 c -1.41679,2.234279 -2.16653,4.716242 -2.69922,6.884765 -0.53269,2.168526 -0.86701,4.165169 -1.01953,4.734376 a 3.0003,3.0003 0 0 0 0.0469,0.697265 3,3 0 0 0 -0.10937,0.267578 l -4.72461,24.072266 c -1.23055,0.239569 -2.4594,0.446718 -3.68555,0.625 l 4.61914,-25.955078 a 3.0003,3.0003 0 0 0 0.10742,-0.175781 c 0.47242,-3.200702 1.71894,-8.454424 3.06641,-11.779297 1.40189,-3.459192 2.72914,-5.952716 4.84961,-7.419922 7.60222,-5.260183 23.76672,-12.474129 28.50586,-14.160157 1.78397,-0.634676 2.02164,-0.484104 2.14453,-0.488281 z m -58.03906,34.369141 c 4.71506,0.105342 8.84076,0.66996 12.95703,1.421875 l -4.42188,24.839844 c -26.17617,1.793249 -49.763978,-8.658627 -56.785152,-12.13086 0.994524,-1.61585 2.158406,-2.953786 4.517578,-4.421875 3.565174,-2.218572 10.104647,-4.68981 22.386714,-7.542968 8.75572,-1.735562 15.50363,-2.296538 21.34571,-2.166016 z m 28.37695,5.470703 c 2.40598,1.382952 5.07381,2.959758 7.65625,4.726563 2.03146,1.389843 3.87581,2.825631 5.08203,4.03125 0.6104,0.610096 0.96832,1.162085 1.17774,1.511718 -5.68934,3.506018 -11.55393,5.999027 -17.44141,7.697266 z M 75.744141,75.816406 c 8.976428,4.269507 31.388349,13.399516 56.591799,12.054688 L 127.97461,112.375 c -0.36372,0.20144 -0.69334,0.47815 -0.95703,0.83398 -0.9855,1.3312 -0.70572,3.20918 0.625,4.19532 0,0 1.77528,1.46738 4.5957,1.76562 3.07328,0.32498 5.50764,0.14861 7.4336,-0.2832 a 3,3 0 0 0 0.85351,-0.21484 c 4.66563,-1.33181 5.90039,-4.19727 5.90039,-4.19727 0,0 -1.44018,0.0144 -3.64062,-0.10156 l 5.66601,-28.869144 c 6.17536,-1.541235 12.3707,-3.874651 18.44141,-7.201172 L 156.06055,208.4043 c -0.87534,6.04862 -4.4426,10.13235 -10.81641,13.17773 -6.35485,3.03633 -15.44857,4.67067 -26.16797,4.93555 C 98.983206,225.28602 89.067626,217.28124 86.347656,209.29688 85.033431,196.16627 77.17333,105.49742 75.744141,75.816406 Z m 66.332029,11.013672 -5.29687,26.992192 c -0.93772,-0.12458 -1.90537,-0.27471 -2.88672,-0.45118 l 4.63281,-26.035152 c 1.18055,-0.145948 2.3637,-0.308075 3.55078,-0.50586 z" /><path
       id="path7"
       style="display:inline;stroke-linecap:round;stroke-linejoin:round"
       d="m 127.38672,99.017578 c -0.88412,-0.01254 -1.78528,-0.0086 -2.70508,0.01172 -11.03754,0.243953 -24.67442,2.918282 -41.671874,9.666012 -1.181421,0.46924 -1.938901,1.63207 -1.890625,2.90235 0.687013,17.86234 6.513671,85.82812 6.513671,85.82812 0.0076,0.0903 0.01937,0.18026 0.03516,0.26953 0,0 0.987701,5.14019 5.728515,9.6875 4.740815,4.54731 13.229213,8.62294 27.406243,8.03711 14.03561,-0.57998 22.35229,-4.22202 27.16602,-8.01562 2.40686,-1.8968 3.91863,-3.81553 4.83008,-5.31446 0.91145,-1.49892 1.28906,-2.81054 1.28906,-2.81054 0.0375,-0.14365 0.0643,-0.28988 0.0801,-0.4375 0,0 2.13208,-19.46524 4.23633,-39.97461 1.05212,-10.25469 2.09768,-20.77023 2.86718,-29.25586 0.76951,-8.48563 1.28626,-14.59807 1.2129,-17.3125 -0.026,-0.95866 -0.5087,-1.84713 -1.29883,-2.39063 -4.99789,-3.43603 -10.31054,-7.48526 -20.94938,-9.46752 -0.15065,1.73479 -0.31092,3.46835 -0.46094,5.20313 -0.0481,0.53936 -0.0512,0.5788 -0.0703,0.79297 8.38257,1.63978 12.17861,4.51947 16.67399,7.50853 -0.0451,2.14288 -0.3868,7.43483 -1.08399,15.12305 -0.76563,8.44288 -1.80858,18.94378 -2.85937,29.18555 -2.0833,20.3052 -4.15871,39.25352 -4.19532,39.58789 -0.008,0.0409 -0.0425,0.26604 -0.56835,1.13086 -0.5676,0.93345 -1.59096,2.28087 -3.41797,3.7207 -3.65403,2.87966 -10.59119,6.19085 -23.69727,6.73242 -12.96465,0.53573 -19.50518,-3.01338 -23.007809,-6.37305 -3.458435,-3.31727 -3.942933,-6.28384 -3.955078,-6.35937 -0.03444,-0.40368 -5.459709,-64.25203 -6.322266,-83.125 15.443983,-5.90882 27.789283,-8.329 37.529293,-8.54297 3.39802,-0.0747 6.49576,0.10156 9.32422,0.46094 0.87342,0.11097 1.53301,-5.852429 0.75586,-5.951173 -2.34736,-0.298252 -4.84178,-0.479944 -7.49414,-0.517578 z" /><path
       style="display:inline;stroke-linecap:round;stroke-linejoin:round"
       d="m 85.277344,110.76563 a 3,3 0 0 0 -2.236328,0.52148 3,3 0 0 0 -0.689454,4.1875 c 0,0 2.720498,3.64448 8.769532,6.77539 6.049033,3.13091 15.622276,6.03856 29.855466,5.69141 14.02953,-0.34219 23.82433,-2.2283 30.17578,-4.07227 6.35146,-1.84397 9.49805,-3.80078 9.49805,-3.80078 a 3,3 0 0 0 0.91602,-4.14258 3,3 0 0 0 -4.14454,-0.91601 c 0,0 -2.12397,1.40872 -7.9414,3.09765 -5.81744,1.68893 -15.08961,3.50324 -28.65039,3.83399 -13.35712,0.32578 -21.840713,-2.37442 -26.951174,-5.01953 -5.110461,-2.64512 -6.65039,-4.94336 -6.65039,-4.94336 a 3,3 0 0 0 -1.951172,-1.21289 z"
       id="path8" /><path
       style="display:inline;fill:none;fill-opacity:1;stroke:#000000;stroke-width:3;stroke-linecap:round;stroke-linejoin:round;stroke-dasharray:none;stroke-opacity:1"
       d="m 145.35382,42.619175 8.07521,5.607786"
       id="path27" /><path
       style="display:inline;fill:none;fill-opacity:1;stroke:#000000;stroke-width:3;stroke-linecap:round;stroke-linejoin:round;stroke-dasharray:none;stroke-opacity:1"
       d="m 148.49418,37.011388 7.40227,8.41168"
       id="path28" /><path
       style="display:inline;fill:none;fill-opacity:1;stroke:#000000;stroke-width:3;stroke-linecap:round;stroke-linejoin:round;stroke-dasharray:none;stroke-opacity:1"
       d="m 153.09256,33.31025 5.8321,10.542638"
       id="path29" /><path
       style="display:inline;fill:none;fill-opacity:1;stroke:#000000;stroke-width:3;stroke-linecap:round;stroke-linejoin:round;stroke-dasharray:none;stroke-opacity:1"
       d="m 102.62249,165.09322 c 0,0 -4.486233,-9.08461 5.83209,-20.07587 2.13096,2.46743 6.72935,16.93551 -0.78509,22.31899 -3.92545,0 -5.047,-2.24312 -5.047,-2.24312 z"
       id="path30" /><path
       style="display:inline;fill:none;fill-opacity:1;stroke:#000000;stroke-width:3;stroke-linecap:round;stroke-linejoin:round;stroke-dasharray:none;stroke-opacity:1"
       d="m 124.60501,170.02808 c 0,0 7.73874,4.93485 9.98186,13.45868 0.33646,5.8321 -1.45803,14.13162 -9.42108,7.17797 -2.69174,-4.59839 -2.46743,-15.81396 -0.56078,-20.63665 z"
       id="path31" /><path
       id="path32"
       style="display:inline;fill:#000000;fill-opacity:1;stroke:none;stroke-width:3;stroke-linecap:round;stroke-linejoin:round;stroke-dasharray:none;stroke-opacity:1"
       d="m 145.33984,133.16602 a 1.4275093,1.4473358 0 0 0 -1.42578,1.44726 1.4275093,1.4473358 0 0 0 1.42578,1.44727 1.4275093,1.4473358 0 0 0 1.42774,-1.44727 1.4275093,1.4473358 0 0 0 -1.42774,-1.44726 z m -17.53906,7.32421 a 1.4275093,1.4473358 0 0 0 -1.42578,1.44727 1.4275093,1.4473358 0 0 0 1.42578,1.44727 1.4275093,1.4473358 0 0 0 1.42774,-1.44727 1.4275093,1.4473358 0 0 0 -1.42774,-1.44727 z m 17.53906,4.33399 a 1.4275093,1.4473358 0 0 0 -1.42578,1.44726 1.4275093,1.4473358 0 0 0 1.42578,1.44727 1.4275093,1.4473358 0 0 0 1.42774,-1.44727 1.4275093,1.4473358 0 0 0 -1.42774,-1.44726 z m -9.83398,11.97461 a 1.4275093,1.4473358 0 0 0 -1.42578,1.44726 1.4275093,1.4473358 0 0 0 1.42578,1.44727 1.4275093,1.4473358 0 0 0 1.42773,-1.44727 1.4275093,1.4473358 0 0 0 -1.42773,-1.44726 z m 6.66211,15.9414 a 1.4275093,1.4473358 0 0 0 -1.42774,1.44727 1.4275093,1.4473358 0 0 0 1.42774,1.44727 1.4275093,1.4473358 0 0 0 1.42773,-1.44727 1.4275093,1.4473358 0 0 0 -1.42773,-1.44727 z m -36.08399,18.08204 a 1.4275093,1.4473358 0 0 0 -1.42773,1.44726 1.4275093,1.4473358 0 0 0 1.42773,1.44727 1.4275093,1.4473358 0 0 0 1.42774,-1.44727 1.4275093,1.4473358 0 0 0 -1.42774,-1.44726 z" /><ellipse
       style="display:inline;fill:#fbe07f;fill-opacity:1;stroke:none;stroke-width:3;stroke-linecap:round;stroke-linejoin:round;stroke-dasharray:none;stroke-opacity:1"
       id="path35"
       cx="96.03965"
       cy="136.92194"
       rx="2.299876"
       ry="2.6567533" /></g>
  </symbol>
  <symbol version="1.1" id="full-lemon" xml:space="preserve" xmlns="http://www.w3.org/2000/svg" xmlnsSvg="http://www.w3.org/2000/svg" viewBox="0 0 127.6272 219.27484">
    <defs
     id="defs1" /><g
     id="layer3"
     style="display:inline"
     transform="translate(-74.986591,-15.577389)"><path
       style="display:inline;fill:#193b3c;fill-opacity:1;stroke:none;stroke-width:3;stroke-linecap:round;stroke-linejoin:round;stroke-dasharray:none;stroke-opacity:1"
       d="m 147.82124,230.00555 c 0,0 -18.61785,6.28072 -37.90863,-8.52384 C 96.678233,211.16338 81.873677,193.44278 76.265891,162.26349 72.90122,133.103 76.04158,113.81222 87.257152,93.399871 88.154398,88.240708 90.846135,77.249447 93.313561,76.12789 90.621824,72.98753 82.995235,65.36094 87.705775,54.145368 91.070447,45.621533 96.22961,41.359616 101.8374,43.827042 c 3.81329,-5.383475 10.31832,-20.18803 31.62791,-24.001325 13.23438,-1.121557 24.22564,5.607786 30.50636,9.421081 5.15916,0.897246 11.21557,0 12.33713,2.691737 1.34586,3.364672 5.60778,7.850901 0.44862,16.823359 -5.8321,8.972457 -9.64539,17.496292 -13.45869,19.739407 7.40228,4.934852 30.28205,20.18803 37.01139,57.423729 2.0188,14.13163 7.8509,43.29211 -13.01006,79.40626 -1.34587,10.09401 -0.44863,18.16922 -10.99126,27.36599 -8.07522,5.60779 -18.16923,-1.34587 -19.96372,-2.69173 -3.36467,0.22431 -6.05641,-0.22432 -8.52384,0 z"
       id="path67" /><path
       style="display:inline;fill:#f8db7d;fill-opacity:1;stroke:none;stroke-width:3;stroke-linecap:round;stroke-linejoin:round;stroke-dasharray:none;stroke-opacity:1"
       d="m 147.82124,225.88163 c 0,0 -18.61785,6.28072 -37.90863,-8.52384 C 96.678233,207.03946 81.873677,189.31886 76.265891,158.13957 72.90122,128.97908 76.04158,109.6883 87.257152,89.275955 88.154398,84.116792 90.846135,73.125531 93.313561,72.003974 90.621824,68.863614 82.995235,61.237024 87.705775,50.021452 91.070447,41.497617 96.22961,37.2357 101.8374,39.703126 c 3.81329,-5.383475 10.31832,-20.18803 31.62791,-24.001325 13.23438,-1.121557 24.22564,5.607786 30.50636,9.421081 5.15916,0.897246 11.21557,0 12.33713,2.691737 1.34586,3.364672 5.60778,7.850901 0.44862,16.823359 -5.8321,8.972457 -9.64539,17.496292 -13.45869,19.739407 7.40228,4.934852 30.28205,20.18803 37.01139,57.423725 2.0188,14.13163 7.8509,43.29211 -13.01006,79.40626 -1.34587,10.09401 -0.44863,18.16922 -10.99126,27.36599 -8.07522,5.60779 -18.16923,-1.34587 -19.96372,-2.69173 -3.36467,0.22431 -6.05641,-0.22432 -8.52384,0 z"
       id="path41" /><path
       style="display:inline;fill:#f9e285;stroke-linecap:round;stroke-linejoin:round"
       d="m 150.51259,214.88106 c 0,0 -36.26975,11.7282 -57.863882,-33.22985 -10.901892,-27.80014 -14.25632,-57.98935 1.677214,-88.830123 1.467562,-4.56096 1.677215,-5.755497 1.991692,-7.004331 0.314476,-1.248835 0.262065,-5.972686 5.975066,-12.434045 -1.10066,-1.900401 -3.459246,-6.026984 -6.079892,-8.633245 -1.153085,-2.443372 -3.983383,-6.026985 -0.838608,-11.130916 1.834453,-3.692207 3.302017,-5.646903 4.245448,-5.918389 1.519982,0 4.664742,0.597268 6.656432,4.506663 0.47172,-1.031645 3.6689,-21.067291 27.56922,-26.822789 7.75711,0.21719 16.03834,1.194538 26.31128,8.253167 4.61236,1.520319 7.33782,1.846102 8.59574,1.628914 1.99168,0.977349 2.93511,2.171885 0.83861,7.710194 -3.66892,6.081281 -9.85364,17.918057 -18.76383,24.868092 5.03163,1.737507 26.90018,9.608352 38.75987,49.691558 2.22368,11.67174 9.63599,43.76901 -10.97023,78.32352 -0.44474,7.98592 -1.48246,18.88978 -9.19126,23.1899 -4.59563,1.84289 -8.89477,-0.92146 -14.0834,-3.8394 -2.07544,-0.30714 -2.09839,-1.5793 -4.82947,-0.32892 z"
       id="path44" /><path
       id="path47"
       style="display:inline;fill:#f2c819;fill-opacity:1;stroke:none;stroke-width:2.6;stroke-linecap:round;stroke-linejoin:round;stroke-dasharray:none;stroke-opacity:1"
       d="m 120.25391,66.648438 c -0.61861,-0.0026 -1.22955,0.05707 -1.81836,0.197265 -4.71054,1.121557 -6.27913,5.15923 -7.625,7.402344 -1.34586,2.243115 -2.46875,3.138672 -2.46875,3.138672 0,0 -3.58892,2.916578 -5.83203,6.28125 0.89725,2.018803 1.57153,7.850901 -0.44727,13.234375 -21.30959,26.693066 -10.542969,74.471126 -10.542969,76.265626 0,0 1.345041,8.07485 6.728516,18.8418 5.383473,10.76695 27.142573,23.33007 27.142573,23.33007 0,0 0.22425,0.22279 5.83204,1.79297 5.60778,1.57018 21.30944,-1.3454 24.89843,-1.12109 3.58898,0.22431 3.81382,4.26278 6.28125,3.58984 2.46742,-0.67293 1e-4,-0.001 4.48633,-0.89844 4.48622,-0.89724 0.22415,0 1.34571,0 1.12155,0 0.22445,-2.9e-4 1.57031,-0.2246 1.34587,-0.22431 5.60709,-4.26017 8.29883,-8.97071 2.69173,-4.71054 1.34554,-10.31845 2.6914,-14.80469 1.34587,-4.48621 8.52387,-19.96384 10.31836,-28.03906 1.79449,-8.07521 1.79538,-38.13364 0.67383,-44.63867 -1.12156,-6.50504 -12.33829,-26.91714 -17.04883,-33.646484 -4.71054,-6.729343 -13.68306,-11.889532 -20.63672,-15.478515 -6.95365,-3.588983 -22.65578,-3.587593 -23.77734,-3.363282 -0.98137,0.196273 -5.74005,-2.870271 -10.07031,-2.888671 z M 105.9043,101.28125 c 0.43949,0.0128 0.94519,0.12174 1.54101,0.33203 2.91605,2.13096 3.58913,6.28119 1.57031,12.11328 -2.01879,5.94426 -3.70071,10.54257 -4.82226,12.44922 -1.12156,1.90665 -2.13076,3.58888 -4.261719,2.13086 0,0 -6.729279,-2.46713 0.785159,-19.62695 2.36578,-4.73158 2.81423,-7.46756 5.1875,-7.39844 z" /><path
       style="display:inline;fill:#568759;fill-opacity:1;stroke:none;stroke-width:2.6;stroke-linecap:round;stroke-linejoin:round;stroke-dasharray:none;stroke-opacity:1"
       d="M 106.43578,76.82667 C 106.66009,74.583556 94.65943,59.779 94.65943,59.779 l 3.028204,-8.075212 3.813296,1.121557 6.28072,2.355271 4.03761,-3.925451 c 0,0 4.82269,-16.486891 24.33779,-19.40294 13.57084,1.121557 16.93551,2.916049 23.44054,5.607786 2.57958,-0.448623 10.87911,0.897246 10.87911,0.897246 l -14.91671,21.197432 c 0,0 -11.21558,6.168564 -17.72061,6.617187 -6.50503,0.448623 -22.20683,-4.486229 -23.5527,-5.719942 -1.34587,-1.233712 0.56078,-3.701138 0.56078,-3.701138 0,0 22.20683,-12.33713 36.67492,-14.804556 -2.13096,-0.78509 -22.20683,-1.458024 -39.14235,11.215572 -0.56077,6.05641 -1.79449,6.729344 1.45803,9.98186 3.25251,3.252516 1.34587,4.374073 0.11215,5.383474 -1.23371,1.009402 -2.46742,3.252516 -3.47682,5.944254 -1.0094,2.691737 -4.03761,2.35527 -4.03761,2.35527 z"
       id="path43" /><path
       style="display:inline;fill:#061e1b;stroke-linecap:round;stroke-linejoin:round"
       d="m 133.92578,22.53125 a 2.8541753,2.8541753 0 0 0 -0.74805,0.07813 C 120.52292,25.656813 113.051,32.660607 108.88867,39 c -1.88351,2.868663 -3.04796,5.527817 -3.85547,7.708984 -2.00161,-1.335473 -4.07804,-1.863281 -5.414059,-1.863281 a 2.8541753,2.8541753 0 0 0 -0.789063,0.111328 c -1.843057,0.530367 -2.446531,1.556135 -3.308594,2.744141 -0.830914,1.14508 -1.683224,2.641382 -2.605468,4.480469 -1.894989,3.112045 -2.104736,6.281718 -1.503907,8.691406 0.604727,2.425318 1.798963,4.200087 2.220703,5.09375 a 2.8541753,2.8541753 0 0 0 0.56836,0.80664 c 1.731749,1.722244 3.421637,4.41065 4.662109,6.480469 -2.128119,2.763152 -3.577164,5.32941 -4.28125,7.369141 -0.428347,1.240918 -0.664423,2.313228 -0.810547,3.130859 -0.146124,0.817631 -0.250705,1.484379 -0.220703,1.365235 -0.342988,1.362056 -0.513619,2.375559 -1.921875,6.761718 C 75.48901,123.41508 78.949703,154.53471 89.992187,182.69336 a 2.8541753,2.8541753 0 0 0 0.08398,0.19336 c 11.108983,23.12844 26.450523,32.16256 38.966793,35.02148 12.51626,2.85892 22.34766,-0.3125 22.34765,-0.3125 a 2.8541753,2.8541753 0 0 0 0.31055,-0.11914 c 1.02971,-0.47143 0.56721,-0.30829 0.57813,-0.30469 0.007,0.002 0.97605,0.31351 1.73437,0.56446 2.52691,1.4232 4.96165,2.90775 7.62695,3.86523 2.69017,0.96642 5.80697,1.31505 8.84766,0.0957 a 2.8541753,2.8541753 0 0 0 0.32813,-0.15625 c 4.70306,-2.62346 7.26034,-7.21262 8.66211,-11.88477 1.3292,-4.43032 1.70249,-9.03899 1.93164,-12.95703 20.6998,-35.24743 13.15314,-68.29324 10.98046,-79.69727 a 2.8541753,2.8541753 0 0 0 -0.0664,-0.27539 C 186.27338,96.276063 177.57123,83.797603 169.61132,76.240224 164.01107,70.923188 159.38764,68.5049 155.85155,66.951162 c 7.72524,-7.464166 13.06784,-17.335603 16.1836,-22.5 a 2.8541753,2.8541753 0 0 0 0.22461,-0.464844 c 1.12248,-2.965249 1.66849,-5.014289 1.24414,-7.134766 -0.42436,-2.120476 -2.24549,-3.535702 -3.49414,-4.148437 a 2.8541753,2.8541753 0 0 0 -1.74219,-0.25 c -0.10359,0.01788 -2.76211,-0.09609 -7.04102,-1.480469 -10.51688,-7.05008 -19.50054,-8.223008 -27.30078,-8.441406 z m 0.2793,5.732422 c 7.4232,0.232845 14.74053,1.133472 24.33594,7.726562 a 2.8541753,2.8541753 0 0 0 0.72265,0.357422 c 4.01954,1.324914 6.47982,1.770484 8.625,1.69336 0.0179,0.139581 -0.0816,1.437118 -0.92578,3.759765 -3.79254,6.316777 -9.81622,17.494854 -17.89062,23.792969 a 2.8541753,2.8541753 0 0 0 0.82421,4.947266 c 2.46484,0.85115 8.58797,3.006621 15.78516,9.839843 7.18337,6.820102 15.32414,18.299424 21.13086,37.863281 2.28824,11.96413 9.336,42.64572 -10.64648,76.1543 a 2.8541753,2.8541753 0 0 0 -0.39844,1.30273 c -0.21953,3.94192 -0.60038,8.46317 -1.75586,12.31445 -1.13061,3.76838 -2.90967,6.71549 -5.80078,8.41211 -1.48903,0.55506 -2.79923,0.46229 -4.64063,-0.19921 -1.90547,-0.68453 -4.19368,-2.02323 -6.83008,-3.50586 a 2.8541753,2.8541753 0 0 0 -0.98046,-0.33594 c -0.47477,-0.0703 -0.48922,-0.2381 -1.69141,-0.63477 -1.20219,-0.39667 -3.04277,-0.24379 -4.74414,0.53516 l 0.31055,-0.12109 c 0,0 -8.30318,2.69422 -19.32032,0.17773 C 119.31263,209.83075 105.7448,202.25971 95.265625,180.5 84.581488,153.19985 81.371916,124.112 96.861328,94.130859 a 2.8541753,2.8541753 0 0 0 0.181641,-0.435547 c 1.48779,-4.623827 1.76038,-6.05944 2.042968,-7.18164 0.187241,-0.743562 0.193662,-1.134616 0.304688,-1.75586 0.111026,-0.621243 0.275906,-1.367665 0.587891,-2.271484 0.623974,-1.807637 1.828104,-4.244009 4.453124,-7.212891 a 2.8541753,2.8541753 0 0 0 0.33008,-3.320312 c -1.02474,-1.769318 -3.24542,-5.62358 -6.064454,-8.630859 -0.698709,-1.439613 -1.449775,-2.641659 -1.746094,-3.830079 -0.3125,-1.253314 -0.361817,-2.404483 0.853515,-4.376953 a 2.8541753,2.8541753 0 0 0 0.125,-0.226562 c 0.871587,-1.754244 1.644748,-3.055673 2.210943,-3.835938 0.13112,-0.180699 0.20058,-0.211486 0.3164,-0.322265 0.91714,0.127952 2.13202,0.527217 3.27539,2.771484 a 2.8541753,2.8541753 0 0 0 5.13867,-0.107422 c 0.26592,-0.581562 0.22376,-0.625534 0.28516,-0.853515 0.0614,-0.227982 0.1284,-0.486797 0.21289,-0.796875 0.16899,-0.620157 0.40516,-1.437805 0.74609,-2.41211 0.68187,-1.94861 1.78029,-4.511611 3.54493,-7.199219 3.493,-5.319978 9.51981,-11.124543 20.54492,-13.86914 z"
       id="path45" /><path
       style="fill:#0b251f;fill-opacity:1;stroke:none;stroke-width:2.6;stroke-linecap:round;stroke-linejoin:round;stroke-dasharray:none;stroke-opacity:1"
       d="m 102.70136,79.54399 c 0,0 2.06196,2.458488 5.1549,1.82404 3.09293,-0.634449 3.56877,-4.123916 3.886,-5.234201 0.31722,-1.110285 1.58612,-6.582404 6.50309,-6.582404 4.91698,0 9.59604,2.379182 10.30979,2.22057 0.71376,-0.158612 9.27881,0.713755 13.56134,-0.237918 4.28253,-0.951673 8.72367,-3.806692 11.57869,-6.344486 2.85502,-2.537794 4.59975,-5.868649 6.5031,-8.723668 1.90334,-2.855018 -8.40645,0.634449 -9.67535,2.061958 -1.26889,1.427509 -10.15117,6.503098 -18.55762,5.868649 -7.9306,-2.855018 -15.54399,-7.137546 -16.9715,-8.406443 9.19951,-5.86865 23.63321,-12.054523 36.32219,-14.592317 -1.58613,-1.110285 -6.34449,-2.22057 -14.2751,-0.158613 -7.45477,1.586122 -20.14374,5.551425 -28.07435,12.054523 -2.37918,1.110285 1.74474,6.503098 5.86865,11.420075 -1.58612,1.110285 -1.67007,2.0189 -2.343,1.794589 -0.67293,-0.224312 -3.74244,-3.826902 -0.71424,-5.901782 -0.95332,-1.177636 -1.3203,-4.451729 -3.1148,-6.358376 -1.79449,-1.906648 -4.91911,-4.675357 -8.17162,-4.114578 -3.252519,0.560779 -2.69174,2.35527 -2.69174,3.028204 0,0.672935 4.52142,-0.793061 6.65237,5.599816 2.13096,6.392876 3.89027,12.3451 4.11458,13.354502 0.22431,1.009401 1.34587,2.35527 -0.56078,2.916048 -3.14036,-3.028204 -4.14976,-5.383474 -4.14976,-5.383474 0,0 -2.69174,4.598384 -2.69174,6.505032 0,1.906647 1.5369,3.390254 1.5369,3.390254 z"
       id="path46" /><path
       id="path48"
       style="fill:#142322;fill-opacity:1;stroke:none;stroke-width:2.6;stroke-linecap:round;stroke-linejoin:round;stroke-dasharray:none;stroke-opacity:1"
       d="m 165.26367,96.091797 a 0.63211405,0.73746634 0 0 0 -0.63281,0.736328 0.63211405,0.73746634 0 0 0 0.63281,0.738281 0.63211405,0.73746634 0 0 0 0.63086,-0.738281 0.63211405,0.73746634 0 0 0 -0.63086,-0.736328 z m 7.41406,11.539063 a 0.98899138,1.5701801 0 0 0 -0.98828,1.57031 0.98899138,1.5701801 0 0 0 0.98828,1.57031 0.98899138,1.5701801 0 0 0 0.99024,-1.57031 0.98899138,1.5701801 0 0 0 -0.99024,-1.57031 z m 6.93946,15.06836 a 1.3458687,1.5701801 0 0 0 -1.34571,1.56836 1.3458687,1.5701801 0 0 0 1.34571,1.57031 1.3458687,1.5701801 0 0 0 1.3457,-1.57031 1.3458687,1.5701801 0 0 0 -1.3457,-1.56836 z m -1.28907,12.39258 a 1.1215572,1.2617519 0 0 0 -1.12304,1.26172 1.1215572,1.2617519 0 0 0 1.12304,1.26171 1.1215572,1.2617519 0 0 0 1.1211,-1.26171 1.1215572,1.2617519 0 0 0 -1.1211,-1.26172 z m 6.35157,4.02539 a 0.51602298,1.2457398 0 0 0 -0.51563,1.24414 0.51602298,1.2457398 0 0 0 0.51563,1.24609 0.51602298,1.2457398 0 0 0 0.51758,-1.24609 0.51602298,1.2457398 0 0 0 -0.51758,-1.24414 z m -20.9043,0.125 a 0.75705111,1.2617519 0 0 0 -0.75781,1.26172 0.75705111,1.2617519 0 0 0 0.75781,1.26171 0.75705111,1.2617519 0 0 0 0.75781,-1.26171 0.75705111,1.2617519 0 0 0 -0.75781,-1.26172 z m 9.50586,2.41015 a 1.1215572,1.2617519 0 0 0 -1.12305,1.26172 1.1215572,1.2617519 0 0 0 1.12305,1.26172 1.1215572,1.2617519 0 0 0 1.12109,-1.26172 1.1215572,1.2617519 0 0 0 -1.12109,-1.26172 z m -75.857422,6.21289 a 0.51602298,1.2457398 0 0 0 -0.517578,1.2461 0.51602298,1.2457398 0 0 0 0.517578,1.24414 0.51602298,1.2457398 0 0 0 0.515625,-1.24414 0.51602298,1.2457398 0 0 0 -0.515625,-1.2461 z m 83.287112,2.19922 a 1.3178297,1.7103748 0 0 0 -1.31836,1.71094 1.3178297,1.7103748 0 0 0 1.31836,1.70899 1.3178297,1.7103748 0 0 0 1.31836,-1.70899 1.3178297,1.7103748 0 0 0 -1.31836,-1.71094 z m -11.69141,0.95313 a 1.1215572,1.2617519 0 0 0 -1.12305,1.26172 1.1215572,1.2617519 0 0 0 1.12305,1.26172 1.1215572,1.2617519 0 0 0 1.12109,-1.26172 1.1215572,1.2617519 0 0 0 -1.12109,-1.26172 z m -71.67578,6.20508 a 0.67463511,0.88886249 0 0 0 -0.673828,0.88867 0.67463511,0.88886249 0 0 0 0.673828,0.88867 0.67463511,0.88886249 0 0 0 0.673828,-0.88867 0.67463511,0.88886249 0 0 0 -0.673828,-0.88867 z m 86.73242,1.5625 a 0.64489537,1.444005 0 0 0 -0.64453,1.44336 0.64489537,1.444005 0 0 0 0.64453,1.44336 0.64489537,1.444005 0 0 0 0.64453,-1.44336 0.64489537,1.444005 0 0 0 -0.64453,-1.44336 z m -10.34765,0.58789 a 1.1215572,1.2617519 0 0 0 -1.1211,1.26172 1.1215572,1.2617519 0 0 0 1.1211,1.26171 1.1215572,1.2617519 0 0 0 1.12304,-1.26171 1.1215572,1.2617519 0 0 0 -1.12304,-1.26172 z m -9.41993,5.49609 a 1.1215572,1.2617519 0 0 0 -1.12109,1.26172 1.1215572,1.2617519 0 0 0 1.12109,1.26172 1.1215572,1.2617519 0 0 0 1.1211,-1.26172 1.1215572,1.2617519 0 0 0 -1.1211,-1.26172 z m 15.25196,6.05664 a 1.1215572,1.2617519 0 0 0 -1.1211,1.26172 1.1215572,1.2617519 0 0 0 1.1211,1.26172 1.1215572,1.2617519 0 0 0 1.12304,-1.26172 1.1215572,1.2617519 0 0 0 -1.12304,-1.26172 z m -6.44727,0.72852 a 1.1215572,1.2617519 0 0 0 -1.12305,1.26172 1.1215572,1.2617519 0 0 0 1.12305,1.26171 1.1215572,1.2617519 0 0 0 1.1211,-1.26171 1.1215572,1.2617519 0 0 0 -1.1211,-1.26172 z m -70.93164,2.46093 a 0.43671688,0.57539439 0 0 0 -0.4375,0.57618 0.43671688,0.57539439 0 0 0 0.4375,0.57421 0.43671688,0.57539439 0 0 0 0.4375,-0.57421 0.43671688,0.57539439 0 0 0 -0.4375,-0.57618 z m 58.36914,4.83008 a 1.1215572,1.2617519 0 0 0 -1.12109,1.26172 1.1215572,1.2617519 0 0 0 1.12109,1.26172 1.1215572,1.2617519 0 0 0 1.1211,-1.26172 1.1215572,1.2617519 0 0 0 -1.1211,-1.26172 z m 5.94531,3.75586 a 1.1215572,1.2617519 0 0 0 -1.12304,1.26172 1.1215572,1.2617519 0 0 0 1.12304,1.26172 1.1215572,1.2617519 0 0 0 1.1211,-1.26172 1.1215572,1.2617519 0 0 0 -1.1211,-1.26172 z m 6.33594,1.00977 a 1.1215572,1.2617519 0 0 0 -1.12109,1.26172 1.1215572,1.2617519 0 0 0 1.12109,1.26172 1.1215572,1.2617519 0 0 0 1.12109,-1.26172 1.1215572,1.2617519 0 0 0 -1.12109,-1.26172 z m -62.32422,6.5039 a 0.43671688,0.57539439 0 0 0 -0.43554,0.57422 0.43671688,0.57539439 0 0 0 0.43554,0.57617 0.43671688,0.57539439 0 0 0 0.4375,-0.57617 0.43671688,0.57539439 0 0 0 -0.4375,-0.57422 z m 58.3418,0.5625 a 1.1215572,1.2617519 0 0 0 -1.12109,1.26172 1.1215572,1.2617519 0 0 0 1.12109,1.26172 1.1215572,1.2617519 0 0 0 1.12305,-1.26172 1.1215572,1.2617519 0 0 0 -1.12305,-1.26172 z m -3.86914,4.87891 a 1.1215572,1.2617519 0 0 0 -1.12109,1.26172 1.1215572,1.2617519 0 0 0 1.12109,1.26172 1.1215572,1.2617519 0 0 0 1.12305,-1.26172 1.1215572,1.2617519 0 0 0 -1.12305,-1.26172 z" /></g>
  </symbol>
  <symbol version="1.1" id="demi-lemon" xml:space="preserve" xmlns="http://www.w3.org/2000/svg" xmlnsSvg="http://www.w3.org/2000/svg" viewBox="0 0 195.71762 239.58432">
    <defs
     id="defs1" /><g
     id="layer4"
     transform="matrix(1.2418358,0,0,1.2418358,-62.045643,-36.045568)"
     style="display:inline"><path
       id="path87"
       style="display:inline;fill:#0c2b31;fill-opacity:1;stroke-width:2.57603;stroke-linecap:round;stroke-linejoin:round"
       d="m 207.56135,132.24784 c -0.10002,12.81319 -2.8772,22.35652 -6.37894,33.5756 -2.79255,8.94695 2.9292,22.47925 -7.24247,33.86759 -4.49834,7.22719 -18.04639,8.94053 -24.40207,8.83315 -12.54442,9.49285 -21.87914,14.14736 -38.42758,13.33953 -42.239332,-2.06196 -79.147452,-35.32103 -79.14745,-89.45726 2e-6,-54.136217 37.383957,-99.92564 79.7819,-99.925645 42.39795,-10e-7 76.29244,38.81049 75.81661,99.767035 z" /><path
       id="path68"
       style="display:inline;fill:#fed67b;fill-opacity:1;stroke-width:2.57603;stroke-linecap:round;stroke-linejoin:round"
       d="m 205.56135,128.79307 c -0.10002,12.81319 -2.8772,22.35652 -6.37894,33.5756 -2.79255,8.94695 2.9292,22.47925 -7.24247,33.86759 -4.49834,7.22719 -18.04639,8.94053 -24.40207,8.83315 -12.54442,9.49285 -21.87914,14.14736 -38.42758,13.33953 -42.239332,-2.06196 -79.147452,-35.32103 -79.14745,-89.45726 2e-6,-54.136218 37.383957,-99.925641 79.7819,-99.925646 42.39795,-10e-7 76.29244,38.81049 75.81661,99.767036 z" /><path
       id="path71"
       style="display:inline;fill:#fdc712;fill-opacity:1;stroke-width:2.32014;stroke-linecap:round;stroke-linejoin:round"
       d="m 197.63124,127.18585 c -0.09,11.5475 -2.58978,20.14813 -5.74172,30.25899 -2.51358,8.06316 2.63659,20.25874 -6.51899,30.52213 -4.04897,6.51328 -16.24364,8.05737 -21.96442,7.9606 -11.2913,8.55514 -19.69353,12.74988 -34.58886,12.02184 -38.019841,-1.85827 -71.241029,-31.83199 -71.241027,-80.62062 2e-6,-48.788603 33.649491,-90.05492 71.812097,-90.054925 38.16261,0 68.67121,34.976767 68.24292,89.911985 z" /><path
       id="path69"
       style="display:inline;fill:none;fill-opacity:0.410546;stroke:#061e1b;stroke-width:6;stroke-linecap:round;stroke-linejoin:round;stroke-dasharray:none;stroke-opacity:1"
       d="m 197.22528,128.25403 c -0.0893,11.44023 -2.5689,19.96097 -5.69542,29.97791 -2.49333,7.98827 2.61533,20.07056 -6.46643,30.23861 -4.01633,6.45279 -16.11268,7.98254 -21.78734,7.88667 -11.20026,8.47567 -19.53475,12.63144 -34.31,11.91017 -37.713306,-1.84102 -70.666654,-31.53632 -70.666652,-79.87175 2e-6,-48.335422 33.378198,-89.218424 71.233122,-89.218429 37.85493,-10e-7 68.11757,34.651875 67.69272,89.076819 z" /><path
       id="ellipse71"
       style="display:inline;fill:#fae28b;fill-opacity:1;stroke:none;stroke-width:6.17077;stroke-linecap:round;stroke-linejoin:round;stroke-dasharray:none;stroke-opacity:1"
       d="m 132.49506,73.95863 a 68.507828,59.687267 90 0 0 -7.79089,-0.586445 68.507828,59.687267 90 0 0 -59.685517,68.508785 68.507828,59.687267 90 0 0 59.685517,68.50684 68.507828,59.687267 90 0 0 59.68752,-68.50836 68.507828,59.687267 90 0 0 -51.89663,-67.92082 z m 4.64376,10.671932 c 3.06286,0.646719 6.7148,1.734863 9.06773,3.500579 4.70585,3.531429 13.79173,11.000953 14.44082,13.041349 0.64908,2.0404 0.97511,2.74301 0.97511,2.74301 0,0 -1.78516,2.47757 -5.35512,6.64075 -3.56994,4.16319 -24.66548,21.75675 -24.66548,21.75675 l -1.13696,-0.55647 c 0,0 0.16269,-2.02759 -0.16186,-6.85449 -0.32453,-4.82689 0.16186,-15.8276 0.16186,-18.68262 0,-2.85502 1.94822,-12.436834 1.94822,-14.498792 0,-2.061958 -0.81126,-7.942781 -0.81126,-7.942781 0,0 2.47408,0.205994 5.53694,0.852715 z m -15.92346,-2.411053 c 1.46044,0.30837 4.22015,5.965299 4.22015,5.965299 l -5.03141,40.336062 c 0,0 -18.01189,-24.26363 -18.66097,-25.35236 -0.64908,-1.08872 -3.2e-4,-7e-4 -0.6494,-1.40665 -0.64909,-1.40595 -1.297981,-3.286737 -1.622524,-5.258608 -0.324541,-1.971873 -2.433778,-3.369359 -2.433778,-3.369359 0,0 7.952652,-7.521068 8.764002,-8.460036 0.81135,-0.938969 13.95349,-2.762718 15.41393,-2.454348 z m 41.90575,32.776091 c 0.14621,0.0307 0.29546,0.069 0.44759,0.116 4.86813,1.50373 6.65425,1.40599 7.30333,3.44639 0.64909,2.04039 6.97657,19.55476 5.84067,22.48715 -1.13589,2.9324 -2.10863,6.05704 -4.21815,6.24606 -2.10952,0.18903 -34.7263,-3.04922 -34.7263,-3.04922 l -6.49207,-0.89423 c 0,0 14.11924,-13.35717 16.39103,-14.93944 2.27179,-1.58227 5.35409,-4.73763 7.30134,-6.22981 1.88639,-1.44556 3.62017,-8.13341 8.15256,-7.1829 z m -75.818796,-11.38797 6.002521,1.26743 c 0,0 6.003912,5.2331 7.788895,7.67196 1.78498,2.43885 15.25375,19.24079 14.60466,21.95876 -0.64908,2.71797 -5.35511,4.10365 -5.35511,4.10365 -4.21904,-0.41501 -29.045391,-8.67002 -29.856745,-8.84134 -0.811353,-0.17131 -1.460028,-15.53614 6.815779,-26.16046 z m 33.903056,32.36954 c 3.19357,0.6248 4.72699,2.48952 5.0414,4.24612 0.32453,1.81326 1.9465,6.43826 -0.48756,6.71737 -2.43406,0.27911 -6.00252,0.79507 -6.00252,0.79507 -0.97362,-0.68142 -3.24545,-5.28511 -3.08319,-6.67835 0.16227,-1.39325 0.81046,-5.69761 4.21815,-5.13669 0.10649,0.0175 0.2107,0.0367 0.31372,0.0565 z m 50.80762,15.61079 c 1.59925,0.30143 2.79364,0.7323 2.91534,1.29331 0.32454,1.49603 1.13474,6.2677 -0.3257,9.4488 -1.46044,3.18109 -2.91938,12.07185 -6.00252,14.91031 -3.08314,2.83848 -9.24956,9.46689 -9.24956,9.46689 L 133.5481,150.96418 c 0,0 27.26158,0.52238 30.18245,0.18745 1.82555,-0.20934 5.61702,-0.0661 8.28244,0.43633 z m -59.06808,-6.43116 c 0.42877,0.10263 0.60326,0.35485 0.48156,0.92395 -0.32455,1.51759 -1.29741,9.8768 -6.49008,12.42846 -5.19266,2.55165 -11.682539,8.00317 -15.090224,10.61449 -3.407685,2.61133 -10.548372,6.65358 -10.548372,6.65358 -0.16227,-1.62038 -1.785113,-19.09276 -2.271926,-24.11253 -0.486812,-5.01976 -1.785908,-10.21139 1.134964,-10.2291 2.920874,-0.0177 25.640638,3.51093 28.723778,3.68609 1.92697,0.10948 3.3456,-0.13594 4.0603,0.0351 z m 14.47878,7.63922 c 1.54625,0.0221 10.74033,12.14838 11.80523,14.75243 1.13589,2.77763 13.79214,17.9805 14.27896,21.88999 0.48681,3.90947 -4.21894,7.99293 -7.78889,9.14249 -3.56996,1.14954 -12.33274,4.69087 -12.33274,4.69087 -1.62271,-0.65986 -10.87166,-5.62698 -11.03393,-7.40597 -0.16228,-1.77901 4.38074,-41.10721 4.86756,-42.90777 0.0304,-0.11255 0.10073,-0.16351 0.20381,-0.16204 z m -7.9927,0.10531 c 0,0 0.16268,6.21994 -0.16185,9.16505 -0.32455,2.9451 -0.48747,14.33043 -1.29882,19.55193 -0.81135,5.22149 -1.78353,14.21544 -2.10807,15.57441 -0.32454,1.35898 -1.46207,3.65654 -3.24704,3.12103 -1.78499,-0.53552 -18.82282,-8.25762 -18.82282,-8.25762 -0.486812,-1.37169 -2.433779,-7.65115 -2.433779,-9.71311 0,-2.06195 26.125629,-28.90229 27.099269,-29.17255 z"
       transform="matrix(0.97745387,-0.21114906,0,1,0,0)" /><ellipse
       style="display:inline;fill:none;fill-opacity:0.410546;stroke:#061e1b;stroke-width:6.68811;stroke-linecap:round;stroke-linejoin:round;stroke-dasharray:none;stroke-opacity:1"
       id="path70"
       cx="125.96103"
       cy="145.8813"
       rx="62.835037"
       ry="76.444633"
       transform="matrix(0.97463323,-0.22380809,0,1,0,0)" /><path
       id="ellipse70"
       style="display:inline;fill:#061e1b;fill-opacity:1;stroke:none;stroke-width:5.53256;stroke-linecap:round;stroke-linejoin:round;stroke-dasharray:none;stroke-opacity:1"
       d="m 131.55095,82.809999 a 52.45874,62.658031 0 0 0 -6.84702,-0.535747 52.45874,62.658031 0 0 0 -52.459819,62.658548 52.45874,62.658031 0 0 0 52.459819,62.65786 52.45874,62.658031 0 0 0 52.45781,-62.65899 52.45874,62.658031 0 0 0 -45.61079,-62.121671 z m 4.39651,4.344952 c 5.05032,1.040314 12.83826,4.382676 16.39482,8.495013 4.06464,4.699816 8.29288,5.787936 5.04117,10.783476 -4.5524,4.70974 -27.64035,25.17268 -27.64035,25.17268 0,0 -1.95107,2.1084 -3.08917,1.85832 -0.81293,-2.24058 -1.78784,-3.08815 -1.78784,-3.08815 l 4.3885,-40.434151 c 0,0 0.002,-3.488191 4.71684,-3.086615 0.58937,0.0502 1.25456,0.150811 1.97603,0.299427 z m -16.2847,-1.857537 c 4.22722,2.039133 5.36559,2.923932 4.55267,9.248406 -0.81293,6.32447 -3.73984,35.34231 -3.73984,35.34231 0,0 -0.16212,3.92826 -4.06417,1.16752 l -20.649183,-30.0724 c 0,0 -3.576421,-4.752909 2.927003,-7.765051 6.50342,-3.012142 15.60819,-8.46526 20.97352,-7.920785 z m 45.12629,27.702716 c 1.02862,0.17506 1.82117,0.85238 2.67474,2.15022 1.95102,2.96649 7.31602,18.89724 6.34051,26.77211 0.48776,3.1208 -0.64969,5.88531 -5.68984,5.25367 -5.04016,-0.63163 -35.44436,-4.45811 -35.44436,-4.45811 0,0 -4.38912,-0.64756 -2.60067,-4.21988 0,0 24.06211,-21.83551 28.93969,-23.93601 2.74362,-1.18153 4.45741,-1.78708 5.77993,-1.562 z m -75.491445,-8.34946 c 2.766497,0.61532 5.693515,2.98245 6.790967,5.12694 1.46327,2.85932 16.257738,23.08181 17.395848,25.71107 1.13809,2.62926 -0.97439,2.64013 -2.76284,2.723 -8.61703,-0.46592 -28.290737,-3.36086 -30.729521,-3.89674 -2.763956,-1.08316 -5.039777,-2.6935 -3.251335,-7.53473 1.788442,-4.84123 5.365777,-16.90268 9.918174,-22.08825 0.812928,-0.25756 1.716542,-0.2464 2.638707,-0.0413 z m 32.723565,34.29973 a 4.1568057,3.2802672 39.88721 0 1 3.81992,4.40771 4.1568057,3.2802672 39.88721 0 1 -3.81992,2.729 4.1568057,3.2802672 39.88721 0 1 -3.82192,-4.40815 4.1568057,3.2802672 39.88721 0 1 3.82192,-2.72856 z m 46.90612,13.63676 c 0,0 5.20237,0.98614 3.25134,6.90192 -1.95103,5.91579 -4.55205,18.03333 -13.33168,26.57258 -2.60136,0.53869 -4.87914,0.51347 -7.15534,-3.63475 -2.27621,-4.14823 -20.64718,-31.50165 -20.64718,-31.50165 0,0 -1.95048,-3.28282 2.11417,-2.86553 z m -57.23071,-8.29211 c 1.62586,1.46753 3.25214,1.66686 -0.16216,5.04054 -4.38982,3.9524 -22.762327,19.90114 -24.713355,23.12052 -2.763956,1.13741 -5.202636,2.18618 -7.804006,-5.68158 -2.601371,-7.86775 -4.877516,-19.15352 -3.902003,-24.33199 0.975514,-5.17846 3.902003,-2.15629 3.902003,-2.15629 0,0 31.378851,3.72301 32.679521,4.0088 z m 13.49985,8.64015 c 0.37772,0.0694 0.80757,0.26331 1.29533,0.63814 0,0 22.59835,30.81941 22.92352,34.53894 0.81292,2.55781 5.36552,4.50907 -8.61684,11.27069 -13.16944,3.76798 -16.74583,2.66614 -18.04652,2.38034 -2.11361,-1.73332 -5.03926,-2.85314 -4.22633,-8.06733 0.81293,-5.21419 4.3885,-39.00446 4.3885,-39.00446 0,0 0.64553,-2.05707 2.28234,-1.75632 z m -7.62182,-0.79193 c 0.32788,0.0617 0.55352,0.45574 0.62464,1.51226 0,0 -2.4384,38.0069 -3.25133,40.20746 -0.81293,2.20055 -1.30002,6.05736 -5.68984,4.61695 -6.66601,-1.94056 -19.18591,-10.56014 -20.649181,-15.1642 -0.325171,-3.71952 -1.462715,-4.12758 2.114169,-7.30693 3.576883,-3.17935 24.061742,-22.62884 25.199852,-23.17182 0.64018,-0.30542 1.23015,-0.77309 1.65169,-0.69372 z"
       transform="matrix(0.9755607,-0.21973009,0,1,0,0)" /></g>
  </symbol>
  <symbol version="1.1" id="quarter-lemon" xml:space="preserve" xmlns="http://www.w3.org/2000/svg" xmlnsSvg="http://www.w3.org/2000/svg" viewBox="0 0 212.51669 236.79321">
    <defs
     id="defs1" /><g
     id="layer5"
     style="display:inline"
     transform="matrix(1.5175055,0,0,1.5175055,-65.813652,-95.66833)"><path
       style="display:inline;fill:#08292e;fill-opacity:1;stroke:none;stroke-width:6;stroke-linecap:round;stroke-linejoin:round;stroke-dasharray:none;stroke-opacity:1"
       d="M 151.09541,70.934327 45.459729,151.19207 c 0,0 -3.806694,48.53532 38.066911,63.12763 33.62578,10.78563 73.59603,6.97894 94.21562,-51.07311 5.71002,-24.74349 11.10284,-52.97645 -5.07559,-86.919453 -6.97894,-6.66171 -8.24783,-13.95787 -21.57126,-5.39281 z"
       id="path3" /><path
       style="display:inline;fill:#fdde85;fill-opacity:1;stroke:none;stroke-width:4.97124;stroke-linecap:round;stroke-linejoin:round;stroke-dasharray:none;stroke-opacity:1"
       d="m 370.33506,79.753941 -87.52345,66.496799 c 0,0 -3.154,40.21348 31.53998,52.3038 27.86032,8.93633 60.9773,5.78234 78.06146,-42.31614 4.73099,-20.50099 9.19916,-43.89314 -4.20533,-72.016295 -5.78233,-5.519497 -6.83366,-11.564661 -17.87266,-4.468164 z"
       id="path88"
       transform="matrix(1.2069415,0,0,1.2069415,-297.87734,-29.324016)" /><path
       style="fill:#fdcc18;fill-opacity:1;stroke:none;stroke-width:26.4567;stroke-linecap:round;stroke-linejoin:round;stroke-opacity:1"
       d="m 63.255827,157.91526 c 0,0 11.664196,17.49629 15.028867,20.63665 3.364672,3.14036 21.982526,16.59905 30.730666,18.16923 8.74815,1.57018 19.73941,0.89724 24.22564,0.22431 4.48623,-0.67294 28.26324,-19.96372 33.64672,-44.86229 5.38347,-24.89857 1.24115,-51.20584 0.68601,-53.822937 -0.55514,-2.6171 -5.55142,-9.477075 -6.46344,-9.873606 2.14126,6.701363 7.12329,42.499113 0.16964,61.004803 -2.91605,7.06581 -15.47749,37.2357 -37.68432,41.049 -15.36534,0.67293 -18.16923,-0.89725 -21.75821,-3.70114 5.49563,0.33647 35.4412,-1.23372 42.61917,-19.62725 6.72934,-12.78576 22.65546,-39.03019 11.6642,-73.574157 -3.58899,-0.897246 -10.54264,0.448622 -10.54264,0.448622 l -0.89725,-5.159163 c 0,0 -69.312235,53.610438 -73.574152,58.320978 -5.159163,5.38347 -7.402278,8.74814 -7.850901,10.76695 z"
       id="path4" /><path
       style="display:inline;fill:#091d20;fill-opacity:1;stroke-linecap:round;stroke-linejoin:round"
       d="m 156.90234,67.755859 c -2.23393,0.409176 -4.56486,1.594498 -7.63672,3.671875 -0.0556,0.0376 -0.10963,0.07734 -0.1621,0.119141 L 48.355469,151.70117 c -0.688956,0.54747 -1.052423,1.40758 -0.964844,2.2832 0,0 4.231806,42.59444 41.712891,54.01758 0.02141,0.006 0.04289,0.012 0.06445,0.0176 14.817804,4.09852 30.940344,4.41369 45.830084,-3.02148 14.88973,-7.43517 28.30421,-22.51883 38.05468,-48.38086 0.0329,-0.0882 0.0609,-0.17822 0.084,-0.26953 5.57121,-21.77107 9.68299,-49.13754 -3.81641,-78.496098 -0.1411,-0.306583 -0.34081,-0.5826 -0.58789,-0.8125 -2.41333,-2.248309 -3.2205,-5.303158 -5.99023,-7.746093 -1.38487,-1.221468 -3.60591,-1.946285 -5.83985,-1.53711 z m 6.65025,86.701891 c -9.42794,24.92913 -18.02056,30.45701 -31.0237,38.93246 -12.63505,8.23552 -23.55059,4.61973 -37.499859,0.76853 -25.81346,-12.56447 -38.13817,-35.63552 -38.599702,-39.36577 L 151.75646,80.794491 c 2.75582,-1.8582 4.07923,-1.516929 5.06812,-1.698059 0.49734,-0.09109 19.09662,17.294 6.72801,75.361318 z"
       id="path89" /><path
       id="path90"
       style="display:inline;fill:#061d21;fill-opacity:1;stroke:none;stroke-width:3.84613;stroke-linecap:round;stroke-linejoin:round;stroke-dasharray:none;stroke-opacity:1"
       d="m 151.85547,90.162109 c -1.35766,0.132164 -3.06843,0.817709 -5.24414,2.289063 0,0 -65.76754,48.441378 -75.560549,58.234378 -1.843299,8.0957 6.848572,27.70004 33.466799,35.8125 12.41927,2.77647 39.94733,-4.59275 51.74023,-37.03321 4.10218,-16.03041 7.51152,-29.05951 1.31641,-51.908199 -0.74772,-3.215766 -1.64577,-7.791023 -5.71875,-7.394532 z m -2.58789,5.779297 c 1.83698,0.08587 3.82429,1.802962 4.60937,4.550784 0.89725,3.14036 2.24296,22.43042 1.34571,24.44922 -0.89725,2.01881 -1.12074,4.48708 -6.72852,3.58984 -5.60779,-0.89725 -26.91691,-10.54432 -27.58984,-10.0957 0.44862,-2.24311 9.87012,-9.42079 15.02929,-13.00977 5.15916,-3.58898 10.54174,-8.971298 12.56055,-9.419921 0.25235,-0.05608 0.51101,-0.07672 0.77344,-0.06445 z m -30.1582,30.652344 c 5.97156,-0.0312 25.12327,7.01886 31.17968,10.23633 4.0376,2.69174 3.1398,7.62606 -3.36523,20.1875 -6.50504,12.56144 -9.42141,6.50483 -10.54297,4.26172 -1.12156,-2.24312 -19.06641,-33.8711 -19.06641,-33.8711 0.0351,-0.56077 0.68907,-0.80867 1.79493,-0.81445 z m -10.76758,1.26367 c 0,0 -5.60667,40.60121 -6.50391,46.20899 -0.89725,3.14036 -3.81336,4.93346 -7.402343,3.36328 -3.588983,-1.57018 -11.889234,-11.66433 -15.253906,-14.80469 -3.364672,-3.14036 -0.896485,-9.64453 -0.896485,-9.64453 z m 4.26172,4.26172 c 0,0 7.40247,11.44107 8.97265,14.13281 1.57018,2.69174 10.76711,16.82177 11.88867,20.85938 1.12156,4.0376 1.79406,6.95431 -1.79492,7.85156 -3.58898,0.89724 -9.4207,7.85008 -18.8418,6.72852 -6.72933,-1.34587 -8.07438,-4.26163 -6.72851,-13.00977 1.34587,-8.74815 6.50391,-36.5625 6.50391,-36.5625 z" /></g>
  </symbol>
</svg>